# Blender 4.5.3 LTS
# www.blender.org
mtllib mar.mtl
o Plane
v -8.168874 0.000000 6.044978
v 8.168874 0.000000 6.044978
v -8.168874 0.000000 -6.044978
v 8.168874 0.000000 -6.044978
v -8.168874 0.000000 11.973473
v 8.168874 0.000000 11.973473
vn -0.0000 1.0000 -0.0000
vt 0.000000 0.000000
vt 1.000000 0.000000
vt 1.000000 1.000000
vt 0.000000 1.000000
vt 0.629067 0.000000
vt 0.356522 0.000000
vt 0.360640 0.166854
vt 0.633184 0.122587
s 0
usemtl Material.001
f 1/1/1 2/2/1 4/3/1 3/4/1
f 2/5/1 1/6/1 5/7/1 6/8/1
